<mxfile host="app.diagrams.net" modified="2020-12-07T09:19:35.370Z" agent="5.0 (Macintosh; Intel Mac OS X 10_14_6) AppleWebKit/537.36 (KHTML, like Gecko) Chrome/86.0.4240.198 Safari/537.36" etag="UY-I3ogZ6EXGM5-Mt8Es" version="13.10.9" type="github">
  <diagram id="kgpKYQtTHZ0yAKxKKP6v" name="Page-1">
    <mxGraphModel dx="1186" dy="795" grid="1" gridSize="10" guides="1" tooltips="1" connect="1" arrows="1" fold="1" page="1" pageScale="1" pageWidth="850" pageHeight="1100" math="0" shadow="0">
      <root>
        <mxCell id="0" />
        <mxCell id="1" parent="0" />
        <mxCell id="3nuBFxr9cyL0pnOWT2aG-1" value="PoolFacade" style="shape=umlLifeline;perimeter=lifelinePerimeter;container=1;collapsible=0;recursiveResize=0;rounded=0;shadow=0;strokeWidth=1;" parent="1" vertex="1">
          <mxGeometry x="120" y="80" width="100" height="300" as="geometry" />
        </mxCell>
        <mxCell id="3nuBFxr9cyL0pnOWT2aG-2" value="" style="points=[];perimeter=orthogonalPerimeter;rounded=0;shadow=0;strokeWidth=1;" parent="3nuBFxr9cyL0pnOWT2aG-1" vertex="1">
          <mxGeometry x="45" y="70" width="10" height="190" as="geometry" />
        </mxCell>
        <mxCell id="3nuBFxr9cyL0pnOWT2aG-5" value="CToken" style="shape=umlLifeline;perimeter=lifelinePerimeter;container=1;collapsible=0;recursiveResize=0;rounded=0;shadow=0;strokeWidth=1;" parent="1" vertex="1">
          <mxGeometry x="300" y="80" width="100" height="100" as="geometry" />
        </mxCell>
        <mxCell id="3nuBFxr9cyL0pnOWT2aG-6" value="" style="points=[];perimeter=orthogonalPerimeter;rounded=0;shadow=0;strokeWidth=1;" parent="3nuBFxr9cyL0pnOWT2aG-5" vertex="1">
          <mxGeometry x="45" y="72" width="10" height="20" as="geometry" />
        </mxCell>
        <mxCell id="3nuBFxr9cyL0pnOWT2aG-8" value="update earned interest and mint new deposit" style="verticalAlign=bottom;endArrow=block;entryX=0;entryY=0;shadow=0;strokeWidth=1;" parent="1" edge="1">
          <mxGeometry relative="1" as="geometry">
            <mxPoint x="175" y="164" as="sourcePoint" />
            <mxPoint x="345" y="164" as="targetPoint" />
          </mxGeometry>
        </mxCell>
        <mxCell id="2oRy1JjAEMInt4t3rmfT-2" value="ReserveService" style="shape=umlLifeline;perimeter=lifelinePerimeter;container=1;collapsible=0;recursiveResize=0;rounded=0;shadow=0;strokeWidth=1;" vertex="1" parent="1">
          <mxGeometry x="470" y="80" width="100" height="150" as="geometry" />
        </mxCell>
        <mxCell id="2oRy1JjAEMInt4t3rmfT-3" value="" style="points=[];perimeter=orthogonalPerimeter;rounded=0;shadow=0;strokeWidth=1;" vertex="1" parent="2oRy1JjAEMInt4t3rmfT-2">
          <mxGeometry x="45" y="80" width="10" height="60" as="geometry" />
        </mxCell>
        <mxCell id="2oRy1JjAEMInt4t3rmfT-4" value="Treasury" style="shape=umlLifeline;perimeter=lifelinePerimeter;container=1;collapsible=0;recursiveResize=0;rounded=0;shadow=0;strokeWidth=1;" vertex="1" parent="1">
          <mxGeometry x="630" y="80" width="100" height="300" as="geometry" />
        </mxCell>
        <mxCell id="2oRy1JjAEMInt4t3rmfT-5" value="" style="points=[];perimeter=orthogonalPerimeter;rounded=0;shadow=0;strokeWidth=1;" vertex="1" parent="2oRy1JjAEMInt4t3rmfT-4">
          <mxGeometry x="45" y="80" width="10" height="160" as="geometry" />
        </mxCell>
        <mxCell id="2oRy1JjAEMInt4t3rmfT-9" value="Deposit" style="edgeStyle=orthogonalEdgeStyle;rounded=0;orthogonalLoop=1;jettySize=auto;html=1;" edge="1" parent="1">
          <mxGeometry relative="1" as="geometry">
            <mxPoint x="65" y="161" as="sourcePoint" />
            <mxPoint x="169.5" y="161" as="targetPoint" />
            <Array as="points">
              <mxPoint x="140" y="161" />
              <mxPoint x="140" y="161" />
            </Array>
          </mxGeometry>
        </mxCell>
        <mxCell id="2oRy1JjAEMInt4t3rmfT-6" value="Actor" style="shape=umlActor;verticalLabelPosition=bottom;verticalAlign=top;html=1;outlineConnect=0;" vertex="1" parent="1">
          <mxGeometry x="35" y="138" width="30" height="60" as="geometry" />
        </mxCell>
        <mxCell id="2oRy1JjAEMInt4t3rmfT-10" style="edgeStyle=none;rounded=0;orthogonalLoop=1;jettySize=auto;html=1;" edge="1" parent="1" source="3nuBFxr9cyL0pnOWT2aG-2" target="2oRy1JjAEMInt4t3rmfT-2">
          <mxGeometry relative="1" as="geometry">
            <Array as="points">
              <mxPoint x="210" y="200" />
            </Array>
          </mxGeometry>
        </mxCell>
        <mxCell id="2oRy1JjAEMInt4t3rmfT-11" value="update Reserve status, recalcuate interests" style="edgeLabel;html=1;align=center;verticalAlign=middle;resizable=0;points=[];" vertex="1" connectable="0" parent="2oRy1JjAEMInt4t3rmfT-10">
          <mxGeometry x="0.4224" relative="1" as="geometry">
            <mxPoint x="-50" y="-5" as="offset" />
          </mxGeometry>
        </mxCell>
        <mxCell id="2oRy1JjAEMInt4t3rmfT-12" style="edgeStyle=none;rounded=0;orthogonalLoop=1;jettySize=auto;html=1;" edge="1" parent="1">
          <mxGeometry relative="1" as="geometry">
            <mxPoint x="175" y="255" as="sourcePoint" />
            <mxPoint x="679.5" y="255" as="targetPoint" />
          </mxGeometry>
        </mxCell>
        <mxCell id="2oRy1JjAEMInt4t3rmfT-13" value="Transfer Asset to Treasury" style="edgeLabel;html=1;align=center;verticalAlign=middle;resizable=0;points=[];" vertex="1" connectable="0" parent="2oRy1JjAEMInt4t3rmfT-12">
          <mxGeometry x="-0.2587" y="4" relative="1" as="geometry">
            <mxPoint as="offset" />
          </mxGeometry>
        </mxCell>
        <mxCell id="2oRy1JjAEMInt4t3rmfT-16" value="Ctoken" style="shape=umlLifeline;perimeter=lifelinePerimeter;container=1;collapsible=0;recursiveResize=0;rounded=0;shadow=0;strokeWidth=1;" vertex="1" parent="1">
          <mxGeometry x="115" y="470" width="100" height="300" as="geometry" />
        </mxCell>
        <mxCell id="2oRy1JjAEMInt4t3rmfT-17" value="" style="points=[];perimeter=orthogonalPerimeter;rounded=0;shadow=0;strokeWidth=1;" vertex="1" parent="2oRy1JjAEMInt4t3rmfT-16">
          <mxGeometry x="45" y="70" width="10" height="210" as="geometry" />
        </mxCell>
        <mxCell id="2oRy1JjAEMInt4t3rmfT-18" value="PoolFacade" style="shape=umlLifeline;perimeter=lifelinePerimeter;container=1;collapsible=0;recursiveResize=0;rounded=0;shadow=0;strokeWidth=1;" vertex="1" parent="1">
          <mxGeometry x="295" y="470" width="100" height="440" as="geometry" />
        </mxCell>
        <mxCell id="2oRy1JjAEMInt4t3rmfT-19" value="" style="points=[];perimeter=orthogonalPerimeter;rounded=0;shadow=0;strokeWidth=1;" vertex="1" parent="2oRy1JjAEMInt4t3rmfT-18">
          <mxGeometry x="45" y="72" width="10" height="348" as="geometry" />
        </mxCell>
        <mxCell id="2oRy1JjAEMInt4t3rmfT-21" value="ReserveService" style="shape=umlLifeline;perimeter=lifelinePerimeter;container=1;collapsible=0;recursiveResize=0;rounded=0;shadow=0;strokeWidth=1;" vertex="1" parent="1">
          <mxGeometry x="465" y="470" width="100" height="350" as="geometry" />
        </mxCell>
        <mxCell id="2oRy1JjAEMInt4t3rmfT-22" value="" style="points=[];perimeter=orthogonalPerimeter;rounded=0;shadow=0;strokeWidth=1;" vertex="1" parent="2oRy1JjAEMInt4t3rmfT-21">
          <mxGeometry x="45" y="80" width="10" height="270" as="geometry" />
        </mxCell>
        <mxCell id="2oRy1JjAEMInt4t3rmfT-23" value="Treasury" style="shape=umlLifeline;perimeter=lifelinePerimeter;container=1;collapsible=0;recursiveResize=0;rounded=0;shadow=0;strokeWidth=1;" vertex="1" parent="1">
          <mxGeometry x="625" y="470" width="100" height="530" as="geometry" />
        </mxCell>
        <mxCell id="2oRy1JjAEMInt4t3rmfT-24" value="" style="points=[];perimeter=orthogonalPerimeter;rounded=0;shadow=0;strokeWidth=1;" vertex="1" parent="2oRy1JjAEMInt4t3rmfT-23">
          <mxGeometry x="45" y="80" width="10" height="450" as="geometry" />
        </mxCell>
        <mxCell id="2oRy1JjAEMInt4t3rmfT-25" value="Redeem" style="edgeStyle=orthogonalEdgeStyle;rounded=0;orthogonalLoop=1;jettySize=auto;html=1;" edge="1" parent="1">
          <mxGeometry relative="1" as="geometry">
            <mxPoint x="60" y="551" as="sourcePoint" />
            <mxPoint x="164.5" y="551" as="targetPoint" />
            <Array as="points">
              <mxPoint x="135" y="551" />
              <mxPoint x="135" y="551" />
            </Array>
          </mxGeometry>
        </mxCell>
        <mxCell id="2oRy1JjAEMInt4t3rmfT-26" value="Actor" style="shape=umlActor;verticalLabelPosition=bottom;verticalAlign=top;html=1;outlineConnect=0;" vertex="1" parent="1">
          <mxGeometry x="30" y="528" width="30" height="60" as="geometry" />
        </mxCell>
        <mxCell id="2oRy1JjAEMInt4t3rmfT-33" value="check collateral healthy rate" style="text;html=1;align=center;verticalAlign=middle;resizable=0;points=[];autosize=1;rotation=90;" vertex="1" parent="1">
          <mxGeometry x="100" y="630" width="160" height="20" as="geometry" />
        </mxCell>
        <mxCell id="2oRy1JjAEMInt4t3rmfT-36" style="edgeStyle=none;rounded=0;orthogonalLoop=1;jettySize=auto;html=1;" edge="1" parent="1" source="2oRy1JjAEMInt4t3rmfT-17" target="2oRy1JjAEMInt4t3rmfT-18">
          <mxGeometry relative="1" as="geometry">
            <Array as="points">
              <mxPoint x="290" y="740" />
            </Array>
          </mxGeometry>
        </mxCell>
        <mxCell id="2oRy1JjAEMInt4t3rmfT-37" value="Redeem" style="edgeLabel;html=1;align=center;verticalAlign=middle;resizable=0;points=[];" vertex="1" connectable="0" parent="2oRy1JjAEMInt4t3rmfT-36">
          <mxGeometry x="-0.1059" y="1" relative="1" as="geometry">
            <mxPoint as="offset" />
          </mxGeometry>
        </mxCell>
        <mxCell id="2oRy1JjAEMInt4t3rmfT-38" value="update Reserve status, recalcuate CummativeIndex" style="edgeLabel;html=1;align=center;verticalAlign=middle;resizable=0;points=[];" vertex="1" connectable="0" parent="1">
          <mxGeometry x="460" y="730" as="geometry" />
        </mxCell>
        <mxCell id="2oRy1JjAEMInt4t3rmfT-39" style="edgeStyle=none;rounded=0;orthogonalLoop=1;jettySize=auto;html=1;" edge="1" parent="1">
          <mxGeometry relative="1" as="geometry">
            <mxPoint x="510" y="750" as="targetPoint" />
            <mxPoint x="350" y="750" as="sourcePoint" />
          </mxGeometry>
        </mxCell>
        <mxCell id="2oRy1JjAEMInt4t3rmfT-40" style="edgeStyle=none;rounded=0;orthogonalLoop=1;jettySize=auto;html=1;" edge="1" parent="1" source="2oRy1JjAEMInt4t3rmfT-19" target="2oRy1JjAEMInt4t3rmfT-23">
          <mxGeometry relative="1" as="geometry">
            <Array as="points">
              <mxPoint x="610" y="850" />
            </Array>
          </mxGeometry>
        </mxCell>
        <mxCell id="2oRy1JjAEMInt4t3rmfT-41" value="TranaferToUser" style="edgeLabel;html=1;align=center;verticalAlign=middle;resizable=0;points=[];" vertex="1" connectable="0" parent="2oRy1JjAEMInt4t3rmfT-40">
          <mxGeometry x="-0.0385" relative="1" as="geometry">
            <mxPoint as="offset" />
          </mxGeometry>
        </mxCell>
        <mxCell id="2oRy1JjAEMInt4t3rmfT-42" value="use balance udpated" style="edgeStyle=none;rounded=0;orthogonalLoop=1;jettySize=auto;html=1;" edge="1" parent="1" source="2oRy1JjAEMInt4t3rmfT-24" target="2oRy1JjAEMInt4t3rmfT-26">
          <mxGeometry relative="1" as="geometry">
            <Array as="points">
              <mxPoint x="45" y="960" />
            </Array>
          </mxGeometry>
        </mxCell>
        <mxCell id="2oRy1JjAEMInt4t3rmfT-43" style="edgeStyle=none;rounded=0;orthogonalLoop=1;jettySize=auto;html=1;" edge="1" parent="1">
          <mxGeometry relative="1" as="geometry">
            <mxPoint x="510" y="790" as="targetPoint" />
            <mxPoint x="350" y="790" as="sourcePoint" />
          </mxGeometry>
        </mxCell>
        <mxCell id="2oRy1JjAEMInt4t3rmfT-44" value="Pay Interest" style="edgeLabel;html=1;align=center;verticalAlign=middle;resizable=0;points=[];" vertex="1" connectable="0" parent="2oRy1JjAEMInt4t3rmfT-43">
          <mxGeometry x="-0.225" y="3" relative="1" as="geometry">
            <mxPoint as="offset" />
          </mxGeometry>
        </mxCell>
      </root>
    </mxGraphModel>
  </diagram>
</mxfile>
